<?xml version="1.0" standalone="no"?>
<!DOCTYPE svg PUBLIC "-//W3C//DTD SVG 20010904//EN"
 "http://www.w3.org/TR/2001/REC-SVG-20010904/DTD/svg10.dtd">
<svg version="1.0" xmlns="http://www.w3.org/2000/svg"
 width="209.000000pt" height="205.000000pt" viewBox="0 0 209.000000 205.000000"
 preserveAspectRatio="xMidYMid meet">

<g transform="translate(0.000000,205.000000) scale(0.100000,-0.100000)"
fill="#000000" stroke="none">
<path d="M990 1916 c-19 -13 -122 -79 -227 -146 l-193 -122 0 -99 c0 -55 3
-99 8 -99 4 0 41 20 82 45 41 25 78 45 83 45 4 0 7 -144 7 -321 l0 -320 54
-57 c29 -31 65 -76 80 -99 l26 -43 65 0 65 0 0 620 c0 341 -3 620 -8 620 -4 0
-23 -11 -42 -24z"/>
<path d="M1210 1586 c0 -45 10 -56 51 -56 15 0 19 7 19 38 0 43 -14 62 -47 62
-21 0 -23 -5 -23 -44z"/>
<path d="M1332 1548 c3 -36 7 -43 36 -55 l32 -13 0 45 c0 40 -3 47 -26 55 -41
16 -45 12 -42 -32z"/>
<path d="M1210 1426 c0 -40 3 -45 31 -55 18 -6 34 -11 35 -11 2 0 4 20 4 45 0
40 -3 47 -26 55 -40 16 -44 13 -44 -34z"/>
<path d="M550 1361 c-63 -37 -137 -81 -165 -98 l-50 -29 -3 -137 -3 -138 28 8
c15 5 73 8 128 7 81 0 109 -4 149 -22 27 -12 50 -22 52 -22 2 0 4 113 4 250 0
194 -3 250 -12 249 -7 0 -65 -31 -128 -68z"/>
<path d="M1336 1399 c-3 -17 -6 -35 -6 -40 0 -8 52 -39 65 -39 3 0 5 20 5 45
0 40 -3 47 -26 55 -14 6 -27 10 -28 10 -2 0 -6 -14 -10 -31z"/>
<path d="M1510 1020 l0 -370 135 0 135 0 0 294 0 294 -130 76 c-71 42 -132 76
-135 76 -3 0 -5 -166 -5 -370z"/>
<path d="M1210 1266 c0 -48 1 -50 43 -60 26 -6 27 -5 27 39 0 40 -3 47 -26 55
-40 16 -44 13 -44 -34z"/>
<path d="M1338 1229 c-3 -31 0 -43 14 -50 36 -20 48 -11 48 35 0 37 -4 45 -22
50 -35 9 -36 9 -40 -35z"/>
<path d="M1210 1100 c0 -34 4 -42 26 -50 35 -14 44 -6 44 40 0 39 -11 50 -51
50 -16 0 -19 -7 -19 -40z"/>
<path d="M1330 1071 c0 -43 1 -45 43 -55 26 -6 27 -5 27 33 0 30 -5 43 -19 51
-38 20 -51 13 -51 -29z"/>
<path d="M353 885 c-107 -33 -214 -131 -254 -233 -33 -82 -33 -232 0 -315 48
-122 179 -224 318 -248 159 -28 335 56 415 198 23 40 36 53 53 53 13 0 26 7
29 16 8 20 8 101 0 197 -6 66 -10 77 -25 77 -11 0 -29 17 -45 43 -74 121 -134
174 -230 206 -75 24 -194 27 -261 6z m17 -290 c16 -9 36 -29 45 -45 31 -60 10
-137 -45 -165 -108 -56 -221 57 -165 165 29 55 105 76 165 45z"/>
<path d="M970 484 l0 -145 27 3 c19 2 32 12 41 31 13 27 15 27 104 27 87 0 92
-1 125 -31 l36 -31 43 43 43 42 56 -57 c31 -31 60 -56 64 -56 5 0 25 19 46 41
l37 41 44 -43 44 -43 29 28 c35 33 58 29 63 -11 3 -25 7 -28 39 -28 31 0 49
11 117 70 l80 70 -481 5 c-420 4 -482 7 -482 20 0 13 63 16 489 20 l490 5 -53
48 -53 47 -430 0 -430 0 -20 25 c-11 14 -30 25 -44 25 l-24 0 0 -146z"/>
</g>
</svg>
