<?xml version="1.0" standalone="no"?>
<!DOCTYPE svg PUBLIC "-//W3C//DTD SVG 20010904//EN"
 "http://www.w3.org/TR/2001/REC-SVG-20010904/DTD/svg10.dtd">
<svg version="1.0" xmlns="http://www.w3.org/2000/svg"
 width="211.000000pt" height="206.000000pt" viewBox="0 0 211.000000 206.000000"
 preserveAspectRatio="xMidYMid meet">
<metadata>
Created by potrace 1.12, written by Peter Selinger 2001-2015
</metadata>
<g transform="translate(0.000000,206.000000) scale(0.100000,-0.100000)"
fill="#000000" stroke="none">
<path d="M0 1030 l0 -1030 1055 0 1055 0 0 1030 0 1030 -1055 0 -1055 0 0
-1030z m1040 305 l0 -625 -68 0 c-67 0 -68 0 -86 35 -10 19 -45 63 -77 97
l-59 63 0 323 c0 177 -2 322 -5 322 -2 0 -42 -22 -87 -49 l-83 -49 -3 96 c-1
52 -1 101 1 107 3 6 68 51 146 100 77 50 180 116 228 147 49 32 89 58 91 58 1
0 2 -281 2 -625z m215 303 c22 -10 25 -17 25 -60 0 -48 0 -48 -27 -42 -16 4
-31 9 -35 11 -10 5 -10 87 -1 96 8 9 8 9 38 -5z m126 -48 c14 -8 19 -21 19
-55 0 -25 -2 -45 -4 -45 -1 0 -17 5 -35 11 -28 10 -31 15 -31 55 0 47 12 55
51 34z m-120 -120 c14 -8 19 -21 19 -55 0 -48 -4 -51 -44 -35 -23 8 -26 15
-26 55 0 48 11 56 51 35z m-571 -276 c0 -240 -1 -256 -17 -251 -10 3 -38 13
-62 22 -49 18 -160 23 -232 12 -43 -7 -47 -6 -53 15 -3 13 -6 71 -6 131 0 90
3 110 18 122 21 18 334 204 345 205 4 0 7 -115 7 -256z m694 240 c12 -4 16
-20 16 -55 0 -27 -2 -49 -4 -49 -1 0 -17 5 -35 11 -28 10 -31 15 -31 55 0 46
12 54 54 38z m261 -103 c64 -39 123 -75 131 -82 11 -9 14 -62 14 -300 l0 -289
-140 0 -140 0 0 370 c0 211 4 370 9 370 5 0 61 -31 126 -69z m-384 -21 c14 -8
19 -21 19 -55 0 -47 -4 -50 -47 -39 -20 6 -23 13 -23 55 0 52 10 60 51 39z
m123 -36 c12 -4 16 -20 16 -55 0 -27 -2 -49 -4 -49 -1 0 -17 5 -35 11 -28 10
-31 15 -31 55 0 46 12 54 54 38z m-111 -131 c4 -2 7 -24 7 -49 0 -47 -11 -55
-51 -34 -14 8 -19 21 -19 56 0 43 1 44 28 38 15 -4 30 -9 35 -11z m96 -24 c29
-10 31 -14 31 -56 0 -42 -2 -45 -22 -39 -13 3 -29 6 -35 6 -9 0 -13 17 -13 50
0 28 2 50 4 50 1 0 17 -5 35 -11z m-806 -214 c123 -26 221 -100 276 -210 15
-29 31 -47 52 -54 l30 -10 -3 -138 c-3 -134 -4 -138 -25 -141 -15 -2 -38 -26
-67 -70 -105 -158 -291 -227 -465 -173 -121 37 -204 110 -258 227 -25 53 -28
70 -28 169 0 103 2 114 32 177 67 142 203 230 363 237 14 0 56 -6 93 -14z
m477 -290 l23 -25 430 0 429 0 47 -42 c26 -24 48 -47 49 -51 1 -5 -216 -8
-483 -7 -482 1 -485 1 -485 -20 0 -20 3 -20 482 -20 l482 0 -79 -72 c-87 -81
-99 -88 -138 -81 -22 4 -27 11 -27 34 0 24 -4 29 -24 29 -15 0 -30 -10 -41
-26 l-17 -26 -47 46 -47 46 -39 -40 c-21 -22 -44 -40 -50 -40 -6 0 -33 23 -60
50 -27 28 -54 50 -59 50 -6 0 -27 -16 -48 -37 l-37 -36 -36 31 c-34 31 -39 32
-123 32 -86 0 -87 0 -104 -30 -13 -23 -24 -30 -48 -30 l-30 0 0 138 c0 76 3
142 7 145 14 15 51 6 73 -18z"/>
<path d="M270 613 c-28 -10 -69 -56 -75 -84 -14 -64 34 -135 97 -145 79 -13
147 55 134 134 -11 70 -91 119 -156 95z"/>
</g>
</svg>
